<svg width="48" height="60" viewBox="0 0 48 60" xmlns="http://www.w3.org/2000/svg">
  <defs>
    <linearGradient id="vG" x1="0" y1="0" x2="0" y2="1">
      <stop offset="0" stop-color="#2FB39E"/>
      <stop offset="1" stop-color="#148170"/>
    </linearGradient>
  </defs>
  <path d="M24 58C24 58 7 36 7 22a17 17 0 1 1 34 0C41 36 24 58 24 58Z" fill="url(#vG)"/>
  <circle cx="24" cy="22" r="12.2" fill="#1A8C79"/>
  <circle cx="30" cy="16" r="2.6" fill="#F4EEDD" fill-opacity="0.5"/>
  <path d="M13 25.5L18 19.5L21.5 23L26 17.5L31 22L35 25.5Z" fill="#F4EEDD" fill-opacity="0.4"/>
  <path d="M13 27.5L19 18.5L23 23.5L27.5 20L35 27.5Z" fill="#F4EEDD" fill-opacity="0.92"/>
  <path d="M14 29.6Q18 27.9 22 29.6T30 29.6" fill="none" stroke="#F4EEDD" stroke-width="1.3" stroke-linecap="round"/>
  <path d="M16 31.7Q19.5 30.3 23 31.7" fill="none" stroke="#F4EEDD" stroke-width="1.1" stroke-linecap="round" stroke-opacity="0.7"/>
</svg>
