<svg width="48" height="60" viewBox="0 0 48 60" xmlns="http://www.w3.org/2000/svg">
  <defs>
    <linearGradient id="mainG" x1="0" y1="0" x2="0" y2="1">
      <stop offset="0" stop-color="#A9743A"/>
      <stop offset="1" stop-color="#8B5A2B"/>
    </linearGradient>
  </defs>
  <path d="M24 58C24 58 7 36 7 22a17 17 0 1 1 34 0C41 36 24 58 24 58Z" fill="url(#mainG)"/>
  <circle cx="24" cy="22" r="12.2" fill="#F4EEDD"/>
  <path d="M17.5 29.5 C16 26 21 24 20.5 21 C20 18 24 17 27 15.5 C28.4 17.5 25.5 19.5 25 22 C24.4 25 27 27 26 29.5 Z" fill="#8B5A2B"/>
  <ellipse cx="21" cy="27" rx="1.15" ry="1.5" transform="rotate(-12 21 27)" fill="#F4EEDD"/>
  <ellipse cx="23.6" cy="24.4" rx="1.0" ry="1.35" transform="rotate(-20 23.6 24.4)" fill="#F4EEDD"/>
  <ellipse cx="22.6" cy="21.3" rx="0.9" ry="1.2" transform="rotate(-28 22.6 21.3)" fill="#F4EEDD"/>
  <ellipse cx="24.6" cy="18.6" rx="0.8" ry="1.05" transform="rotate(-34 24.6 18.6)" fill="#F4EEDD"/>
</svg>
